HIERARCHY
ROOT Hips
{
	OFFSET 0.000000 0.000000 0.000000 
	CHANNELS 6 Xposition Yposition Zposition Yrotation Zrotation Xrotation 
	JOINT Lumbar
	{
		OFFSET 0.000000 0.000000 0.000000 
		CHANNELS 3 Zrotation Xrotation Yrotation
		JOINT Neck
		{
			OFFSET 0.000000 0.445665 0.000000 
			CHANNELS 3 Zrotation Xrotation Yrotation
			End Site
			{
				OFFSET 0.000000 0.227535 0.000000 
			}
		}
		JOINT RightShoulder
		{
			OFFSET 0.019635 0.377685 0.194865 
			CHANNELS 3 Zrotation Xrotation Yrotation
			JOINT RightElbow
			{
				OFFSET 0.000000 -0.243375 0.000000 
				CHANNELS 2 Zrotation Yrotation
				JOINT RightWrist
				{
					OFFSET 0.000000 -0.264825 0.000000 
					CHANNELS 2 Zrotation Xrotation
					End Site
					{
						OFFSET 0.006600 -0.176220 0.000990 
					}
				}
			}
		}
		JOINT LeftShoulder
		{
			OFFSET 0.019635 0.377685 -0.194865 
			CHANNELS 3 Zrotation Xrotation Yrotation
			JOINT LeftElbow
			{
				OFFSET 0.000000 -0.243375 0.000000 
				CHANNELS 2 Zrotation Yrotation
				JOINT LeftWrist
				{
					OFFSET 0.000000 -0.264825 0.000000 
					CHANNELS 2 Zrotation Xrotation
					End Site
					{
						OFFSET 0.006600 -0.176220 -0.000990 
					}
				}
			}
		}
	}
	JOINT RightHip
	{
		OFFSET 0.052140 -0.069960 0.075570 
		CHANNELS 3 Zrotation Xrotation Yrotation
		JOINT RightKnee
		{
			OFFSET 0.000000 -0.402270 0.000000 
			CHANNELS 1 Zrotation
			JOINT RightAnkle
			{
				OFFSET 0.000000 -0.404085 0.000000 
				CHANNELS 3 Zrotation Xrotation Yrotation
				End Site
				{
					OFFSET 0.204105 -0.089430 0.008415 
				}
			}
		}
	}
	JOINT LeftHip
	{
		OFFSET 0.052140 -0.069960 -0.075570 
		CHANNELS 3 Zrotation Xrotation Yrotation
		JOINT LeftKnee
		{
			OFFSET 0.000000 -0.402270 0.000000 
			CHANNELS 1 Zrotation
			JOINT LeftAnkle
			{
				OFFSET 0.000000 -0.404085 0.000000 
				CHANNELS 3 Zrotation Xrotation Yrotation
				End Site
				{
					OFFSET 0.204105 -0.089430 -0.008415 
				}
			}
		}
	}
}
MOTION
Frames: 14
Frame Time: 0.02
0.00104 0.00066 0.00073 12.85071 -20.95128 -5.25087 46.21474 3.51106 -16.87991 -9.05036 4.8038 -1.0504 -13.36555 -10.37342 -4.56798 28.18877 123.29506 9.83125 8.41182 -20.56021 17.8596 -3.80376 61.32215 -148.7098 22.32113 -12.28881 36.12423 0.95951 -16.15555 -21.12194 -7.13294 -1.98772 -3.21827 35.86943 12.9035 4.94966 -27.08336 -9.82704 4.14206 4.42077
0.0014 0.00088 -0.00288 12.58005 -20.85475 -5.26419 46.36495 3.55284 -16.97443 -9.02024 4.72002 -1.05329 -13.21787 -10.32169 -4.38817 28.27854 120.89645 9.48638 7.94905 -21.35004 17.97604 -4.78783 61.11509 -142.21648 20.64164 -10.86879 35.97173 0.85382 -15.7341 -21.07875 -7.15347 -1.99725 -3.2249 35.58904 12.82689 5.49608 -27.07051 -9.7618 4.12454 4.40914
0.00175 0.0011 -0.00649 12.31002 -20.75841 -5.27755 46.51486 3.59453 -17.06857 -8.99044 4.63651 -1.05617 -13.07117 -10.27006 -4.20899 28.36842 118.50461 9.14236 7.48767 -22.13997 18.0918 -5.76884 60.9105 -135.74489 18.96783 -9.45372 35.81949 0.74821 -15.31419 -21.03563 -7.17396 -2.00668 -3.23147 35.30931 12.75012 6.04008 -27.0577 -9.69683 4.10713 4.39757
0.00211 0.00132 -0.01009 12.04015 -20.66217 -5.29083 46.66464 3.63619 -17.16279 -8.96044 4.55299 -1.05905 -12.92401 -10.21849 -4.02974 28.45799 116.11338 8.79853 7.02637 -22.92777 18.20782 -6.74987 60.70436 -129.27192 17.29362 -8.03819 35.66743 0.64281 -14.89409 -20.99256 -7.19443 -2.01616 -3.23807 35.02977 12.67367 6.58466 -27.04488 -9.6318 4.08967 4.38598
0.00246 0.00154 -0.0137 11.76976 -20.56578 -5.30407 46.81463 3.67794 -17.25738 -8.93006 4.46921 -1.06193 -12.77575 -10.16684 -3.84985 28.54726 113.71537 8.45391 6.56356 -23.71457 18.32463 -7.73399 60.49509 -122.7764 15.61347 -6.61743 35.51515 0.53743 -14.47231 -20.94944 -7.21493 -2.02578 -3.24474 34.74962 12.59756 7.13204 -27.03202 -9.56647 4.07207 4.37431
0.00281 0.00176 -0.0173 11.50051 -20.46951 -5.31767 46.96435 3.71948 -17.35057 -8.90151 4.38625 -1.06481 -12.63233 -10.11524 -3.67216 28.6384 111.33649 8.11116 6.10517 -24.51099 18.43819 -8.70842 60.30036 -116.35534 13.95306 -5.21435 35.36298 0.43135 -14.05635 -20.90634 -7.2354 -2.03481 -3.25112 34.47078 12.51942 7.66897 -27.01933 -9.50225 4.05507 4.36298
0.00317 0.00198 -0.02091 11.22922 -20.37316 -5.33051 47.11449 3.7614 -17.44655 -8.86921 4.30173 -1.0677 -12.47922 -10.06361 -3.49025 28.72579 108.92251 7.76511 5.6387 -25.28711 18.55814 -9.70119 60.07655 -109.79243 12.25502 -3.7775 35.21083 0.32679 -13.62923 -20.86325 -7.25591 -2.045 -3.25806 34.18969 12.44539 8.226 -27.0063 -9.43591 4.0369 4.35097
0.00353 0.0022 -0.02451 10.95988 -20.27679 -5.34406 47.26419 3.80297 -17.53979 -8.84054 4.21864 -1.07057 -12.33525 -10.01202 -3.31223 28.81644 106.53949 7.42194 5.17912 -26.08209 18.67226 -10.67717 59.87962 -103.35871 10.59122 -2.37134 35.05855 0.22083 -13.21225 -20.82012 -7.27639 -2.05415 -3.2645 33.91055 12.36769 8.76514 -26.99357 -9.37145 4.01977 4.33957
0.00387 0.00241 -0.02811 10.69248 -20.18073 -5.35845 47.41363 3.84415 -17.6304 -8.81567 4.13733 -1.07344 -12.20167 -9.96038 -3.13889 28.91196 104.19882 7.08275 4.73003 -26.90037 18.77897 -11.63254 59.71552 -97.08694 8.97049 -1.004 34.90647 0.11306 -12.80813 -20.77703 -7.29681 -2.06189 -3.27027 33.63412 12.2849 9.27993 -26.98129 -9.30957 4.00405 4.32901
0.00427 0.00264 -0.03174 10.41258 -20.08388 -5.36792 47.56542 3.8877 -17.73832 -8.76701 4.04587 -1.07638 -12.00597 -9.90872 -2.9384 28.98213 101.62792 6.72204 4.22678 -27.58539 18.92745 -12.70628 59.36248 -89.89533 7.10554 0.5828 34.75428 0.01539 -12.33144 -20.73399 -7.31752 -2.07734 -3.2797 33.34305 12.22958 9.92736 -26.96668 -9.23368 3.98065 4.31392
0.00455 0.00285 -0.0353 10.15997 -19.98809 -5.38784 47.71168 3.92614 -17.80832 -8.76977 3.97577 -1.07915 -11.9428 -9.85729 -2.79533 29.10404 99.53442 6.40591 3.83386 -28.55071 18.98841 -13.53035 59.40794 -84.63705 5.75366 1.70906 34.60169 -0.10336 -12.00695 -20.69066 -7.33765 -2.07677 -3.28154 33.08231 12.1175 10.29974 -26.95679 -9.1868 3.97316 4.30818
0.00454 0.00297 -0.0387 9.97571 -19.90042 -5.43613 47.84786 3.95123 -17.78456 -8.90521 3.96494 -1.08146 -12.23518 -9.80506 -2.81046 29.38411 98.83495 6.22032 3.7802 -30.3001 18.80133 -13.66102 60.55883 -84.80077 5.84227 1.5375 34.45356 -0.28245 -12.11129 -20.648 -7.35587 -2.02992 -3.26147 32.91065 11.83791 9.86863 -26.96166 -9.2249 4.01234 4.32988
0.00442 0.00307 -0.04203 9.82029 -19.81308 -5.49497 47.9778 3.97104 -17.72078 -9.09393 3.97522 -1.08359 -12.66235 -9.7533 -2.88329 29.71329 98.60163 6.07828 3.83145 -32.32764 18.52748 -13.54179 62.10723 -86.88758 6.44072 0.90896 34.30426 -0.48225 -12.36612 -20.60483 -7.37357 -1.96748 -3.23401 32.76872 11.50322 9.16919 -26.97099 -9.29122 4.067 4.36066
0.00435 0.00318 -0.04538 9.65562 -19.7219 -5.54916 48.10691 3.99285 -17.66862 -9.26368 3.97567 -1.08581 -13.03292 -9.70233 -2.92914 30.00928 98.09709 5.91052 3.80968 -34.21892 18.29893 -13.54325 63.46656 -88.01369 6.78371 0.51288 34.15155 -0.67093 -12.54514 -20.56084 -7.39172 -1.91363 -3.21061 32.60887 11.20184 8.62588 -26.977 -9.34096 4.11253 4.38605
